<svg width="30" height="30" viewBox="0 0 30 30" fill="none" xmlns="http://www.w3.org/2000/svg">
<path fill-rule="evenodd" clip-rule="evenodd" d="M16.3933 14.7583L29.2262 1.92539C29.6566 1.48008 29.6502 0.770554 29.2135 0.331627C28.7745 -0.105162 28.065 -0.111555 27.6197 0.318842L14.7868 13.1518L1.95387 0.318842C1.50856 -0.111555 0.799037 -0.105162 0.36011 0.331627C-0.0766792 0.770549 -0.0830719 1.48008 0.34733 1.92539L13.1802 14.7583L0.34733 27.5912C0.127872 27.8021 0.00216083 28.0941 2.8106e-05 28.3988C-0.00210462 28.7034 0.117214 28.9975 0.332417 29.2127C0.547621 29.4279 0.841648 29.5472 1.14634 29.5451C1.45103 29.5429 1.74296 29.4172 1.95389 29.1978L14.7868 16.3649L27.6197 29.1978C28.065 29.6282 28.7745 29.6218 29.2135 29.185C29.6503 28.7461 29.6567 28.0365 29.2263 27.5912L16.3933 14.7583Z" fill="white"/>
</svg>
