<svg width="102" height="102" viewBox="0 0 102 102" fill="none" xmlns="http://www.w3.org/2000/svg">
<path fill-rule="evenodd" clip-rule="evenodd" d="M51 101C78.6142 101 101 78.6142 101 51C101 23.3858 78.6142 1 51 1C23.3858 1 1 23.3858 1 51C1 78.6142 23.3858 101 51 101Z" stroke="white" stroke-opacity="0.212947"/>
<mask id="mask0" mask-type="alpha" maskUnits="userSpaceOnUse" x="0" y="0" width="102" height="102">
<path fill-rule="evenodd" clip-rule="evenodd" d="M51 101C78.6142 101 101 78.6142 101 51C101 23.3858 78.6142 1 51 1C23.3858 1 1 23.3858 1 51C1 78.6142 23.3858 101 51 101Z" fill="white" stroke="white"/>
</mask>
<g mask="url(#mask0)">
<path fill-rule="evenodd" clip-rule="evenodd" d="M51.5 24C36.3108 24 24 36.3108 24 51.5C24 66.6892 36.3108 79 51.5 79C66.6892 79 79 66.6892 79 51.5C79 36.3108 66.6892 24 51.5 24ZM42.3333 38.1667L65.6667 51.5L42.3333 64.8333V38.1667Z" fill="white"/>
</g>
</svg>
